<svg xmlns="http://www.w3.org/2000/svg" xmlns:xlink="http://www.w3.org/1999/xlink" width="840" height="429.07"><rect width="840" height="429.07" rx="5" ry="5" class="a"/><svg y="0%" x="0%"><circle cx="20" cy="20" r="6" fill="#ff5f58"/><circle cx="40" cy="20" r="6" fill="#ffbd2e"/><circle cx="60" cy="20" r="6" fill="#18c132"/></svg><svg height="369.07" viewBox="0 0 80 36.907" width="800" x="15" xmlns="http://www.w3.org/2000/svg" xmlns:xlink="http://www.w3.org/1999/xlink" y="50"><style>@keyframes i{0%{transform:translateX(0)}.08%{transform:translateX(-160px)}7.24%{transform:translateX(-240px)}8.12%{transform:translateX(-320px)}9.33%{transform:translateX(-400px)}11.31%{transform:translateX(-480px)}12.72%{transform:translateX(-560px)}14.06%{transform:translateX(-640px)}22.2%{transform:translateX(-720px)}24%{transform:translateX(-800px)}25.09%{transform:translateX(-880px)}26.29%{transform:translateX(-960px)}26.65%{transform:translateX(-1040px)}28.06%{transform:translateX(-1120px)}29.04%{transform:translateX(-1200px)}35.96%{transform:translateX(-1280px)}36.87%{transform:translateX(-1360px)}39.38%{transform:translateX(-1440px)}44.2%{transform:translateX(-1520px)}45.59%{transform:translateX(-1600px)}46.53%{transform:translateX(-1680px)}51.35%{transform:translateX(-1760px)}52.35%{transform:translateX(-1840px)}54.03%{transform:translateX(-1920px)}58.7%{transform:translateX(-2000px)}59.61%{transform:translateX(-2080px)}61.42%{transform:translateX(-2160px)}65.78%{transform:translateX(-2240px)}67.47%{transform:translateX(-2320px)}68.3%{transform:translateX(-2400px)}72.14%{transform:translateX(-2480px)}74.91%{transform:translateX(-2560px)}77.06%{transform:translateX(-2640px)}79.21%{transform:translateX(-2720px)}81.37%{transform:translateX(-2800px)}83.53%{transform:translateX(-2880px)}83.63%{transform:translateX(-3040px)}to{transform:translateX(-3120px)}}.a{fill:#282d35}.f{fill:#b9c0cb;white-space:pre}</style><g font-family="Monaco,Consolas,Menlo,'Bitstream Vera Sans Mono','Powerline Symbols',monospace" font-size="1.67"><defs><symbol id="7"><text y="1.67" class="f">Test</text><text x="5.01" y="1.67" class="f">Case</text><text x="10.02" y="1.67" class="f">3</text><text x="12.024" y="1.67" class="f">Passed</text><text x="19.038" y="1.67" class="f">and</text><text x="23.046" y="1.67" class="f">took</text><text x="28.056" y="1.67" class="f">0.363</text><text x="34.068" y="1.67" class="f">seconds</text><text x="43.086" y="1.67" class="f">✅</text></symbol><symbol id="1"><text y="1.67" class="f">[shailesh@MSIArchBox</text><text x="21.042" y="1.67" class="f">june_long]$</text></symbol><symbol id="3"><text y="1.67" class="f">[shailesh@MSIArchBox</text><text x="21.042" y="1.67" class="f">june_long]$</text><text x="33.066" y="1.67" class="f">competest</text><text x="43.086" y="1.67" class="f">python</text><text x="50.1" y="1.67" class="f">EOEO.py</text><text x="58.116" y="1.67" class="f">-t</text></symbol><symbol id="4"><text y="1.67" class="f">[shailesh@MSIArchBox</text><text x="21.042" y="1.67" class="f">june_long]$</text><text x="33.066" y="1.67" class="f">competest</text><text x="43.086" y="1.67" class="f">python</text><text x="50.1" y="1.67" class="f">EOEO.py</text><text x="58.116" y="1.67" class="f">-t</text><text x="61.122" y="1.67" class="f">EOEO.json</text></symbol><symbol id="5"><text y="1.67" class="f">Test</text><text x="5.01" y="1.67" class="f">Case</text><text x="10.02" y="1.67" class="f">1</text><text x="12.024" y="1.67" class="f">Passed</text><text x="19.038" y="1.67" class="f">and</text><text x="23.046" y="1.67" class="f">took</text><text x="28.056" y="1.67" class="f">0.356</text><text x="34.068" y="1.67" class="f">seconds</text><text x="43.086" y="1.67" class="f">✅</text></symbol><symbol id="6"><text y="1.67" class="f">Test</text><text x="5.01" y="1.67" class="f">Case</text><text x="10.02" y="1.67" class="f">2</text><text x="12.024" y="1.67" class="f">Passed</text><text x="19.038" y="1.67" class="f">and</text><text x="23.046" y="1.67" class="f">took</text><text x="28.056" y="1.67" class="f">0.362</text><text x="34.068" y="1.67" class="f">seconds</text><text x="43.086" y="1.67" class="f">✅</text></symbol><symbol id="2"><text y="1.67" class="f">[shailesh@MSIArchBox</text><text x="21.042" y="1.67" class="f">june_long]$</text><text x="33.066" y="1.67" class="f">competest</text><text x="43.086" y="1.67" class="f">python</text></symbol><symbol id="8"><text y="1.67" class="f">Test</text><text x="5.01" y="1.67" class="f">Case</text><text x="10.02" y="1.67" class="f">4</text><text x="12.024" y="1.67" class="f">Passed</text><text x="19.038" y="1.67" class="f">and</text><text x="23.046" y="1.67" class="f">took</text><text x="28.056" y="1.67" class="f">0.363</text><text x="34.068" y="1.67" class="f">seconds</text><text x="43.086" y="1.67" class="f">✅</text></symbol><symbol id="9"><text y="1.67" class="f">Test</text><text x="5.01" y="1.67" class="f">Case</text><text x="10.02" y="1.67" class="f">5</text><text x="12.024" y="1.67" class="f">Passed</text><text x="19.038" y="1.67" class="f">and</text><text x="23.046" y="1.67" class="f">took</text><text x="28.056" y="1.67" class="f">0.363</text><text x="34.068" y="1.67" class="f">seconds</text><text x="43.086" y="1.67" class="f">✅</text></symbol><symbol id="10"><text y="1.67" class="f">All</text><text x="4.008" y="1.67" class="f">tests</text><text x="10.02" y="1.67" class="f">passed</text><text x="17.034" y="1.67" class="f">successfully.</text><text x="31.062" y="1.67" class="f">✅</text></symbol><symbol id="a"><path fill="transparent" d="M0 0h80v17H0z"/></symbol><symbol id="b"><path fill="#6f7683" d="M0 0h1.102v2.171H0z"/></symbol></defs><path class="a" d="M0 0h80v36.907H0z"/><g style="animation-duration:16.865977s;animation-iteration-count:infinite;animation-name:i;animation-timing-function:steps(1,end)"><svg width="3200"><svg><use xlink:href="#a"/><use xlink:href="#b" x="-.004"/></svg><svg x="80"><use xlink:href="#a"/><use xlink:href="#b" x="-.004"/></svg><svg x="160"><use xlink:href="#a"/><use xlink:href="#b" x="32.996"/><use xlink:href="#1"/></svg><svg x="240"><use xlink:href="#a"/><use xlink:href="#b" x="33.996"/><text y="1.67" class="f">[shailesh@MSIArchBox</text><text x="21.042" y="1.67" class="f">june_long]$</text><text x="33.066" y="1.67" class="f">c</text></svg><svg x="320"><use xlink:href="#a"/><use xlink:href="#b" x="34.996"/><text y="1.67" class="f">[shailesh@MSIArchBox</text><text x="21.042" y="1.67" class="f">june_long]$</text><text x="33.066" y="1.67" class="f">co</text></svg><svg x="400"><use xlink:href="#a"/><use xlink:href="#b" x="35.996"/><text y="1.67" class="f">[shailesh@MSIArchBox</text><text x="21.042" y="1.67" class="f">june_long]$</text><text x="33.066" y="1.67" class="f">com</text></svg><svg x="480"><use xlink:href="#a"/><use xlink:href="#b" x="36.996"/><text y="1.67" class="f">[shailesh@MSIArchBox</text><text x="21.042" y="1.67" class="f">june_long]$</text><text x="33.066" y="1.67" class="f">comp</text></svg><svg x="560"><use xlink:href="#a"/><use xlink:href="#b" x="37.996"/><text y="1.67" class="f">[shailesh@MSIArchBox</text><text x="21.042" y="1.67" class="f">june_long]$</text><text x="33.066" y="1.67" class="f">compe</text></svg><svg x="640"><use xlink:href="#a"/><use xlink:href="#b" x="42.996"/><text y="1.67" class="f">[shailesh@MSIArchBox</text><text x="21.042" y="1.67" class="f">june_long]$</text><text x="33.066" y="1.67" class="f">competest</text></svg><svg x="720"><use xlink:href="#a"/><use xlink:href="#b" x="43.996"/><text y="1.67" class="f">[shailesh@MSIArchBox</text><text x="21.042" y="1.67" class="f">june_long]$</text><text x="33.066" y="1.67" class="f">competest</text><text x="43.086" y="1.67" class="f">p</text></svg><svg x="800"><use xlink:href="#a"/><use xlink:href="#b" x="44.996"/><text y="1.67" class="f">[shailesh@MSIArchBox</text><text x="21.042" y="1.67" class="f">june_long]$</text><text x="33.066" y="1.67" class="f">competest</text><text x="43.086" y="1.67" class="f">py</text></svg><svg x="880"><use xlink:href="#a"/><use xlink:href="#b" x="45.996"/><text y="1.67" class="f">[shailesh@MSIArchBox</text><text x="21.042" y="1.67" class="f">june_long]$</text><text x="33.066" y="1.67" class="f">competest</text><text x="43.086" y="1.67" class="f">pyt</text></svg><svg x="960"><use xlink:href="#a"/><use xlink:href="#b" x="46.996"/><text y="1.67" class="f">[shailesh@MSIArchBox</text><text x="21.042" y="1.67" class="f">june_long]$</text><text x="33.066" y="1.67" class="f">competest</text><text x="43.086" y="1.67" class="f">pyth</text></svg><svg x="1040"><use xlink:href="#a"/><use xlink:href="#b" x="47.996"/><text y="1.67" class="f">[shailesh@MSIArchBox</text><text x="21.042" y="1.67" class="f">june_long]$</text><text x="33.066" y="1.67" class="f">competest</text><text x="43.086" y="1.67" class="f">pytho</text></svg><svg x="1120"><use xlink:href="#a"/><use xlink:href="#b" x="48.996"/><use xlink:href="#2"/></svg><svg x="1200"><use xlink:href="#a"/><use xlink:href="#b" x="49.996"/><use xlink:href="#2"/></svg><svg x="1280"><use xlink:href="#a"/><use xlink:href="#b" x="50.996"/><text y="1.67" class="f">[shailesh@MSIArchBox</text><text x="21.042" y="1.67" class="f">june_long]$</text><text x="33.066" y="1.67" class="f">competest</text><text x="43.086" y="1.67" class="f">python</text><text x="50.1" y="1.67" class="f">E</text></svg><svg x="1360"><use xlink:href="#a"/><use xlink:href="#b" x="51.996"/><text y="1.67" class="f">[shailesh@MSIArchBox</text><text x="21.042" y="1.67" class="f">june_long]$</text><text x="33.066" y="1.67" class="f">competest</text><text x="43.086" y="1.67" class="f">python</text><text x="50.1" y="1.67" class="f">EO</text></svg><svg x="1440"><use xlink:href="#a"/><use xlink:href="#b" x="53.996"/><text y="1.67" class="f">[shailesh@MSIArchBox</text><text x="21.042" y="1.67" class="f">june_long]$</text><text x="33.066" y="1.67" class="f">competest</text><text x="43.086" y="1.67" class="f">python</text><text x="50.1" y="1.67" class="f">EOEO</text></svg><svg x="1520"><use xlink:href="#a"/><use xlink:href="#b" x="54.996"/><text y="1.67" class="f">[shailesh@MSIArchBox</text><text x="21.042" y="1.67" class="f">june_long]$</text><text x="33.066" y="1.67" class="f">competest</text><text x="43.086" y="1.67" class="f">python</text><text x="50.1" y="1.67" class="f">EOEO.</text></svg><svg x="1600"><use xlink:href="#a"/><use xlink:href="#b" x="55.996"/><text y="1.67" class="f">[shailesh@MSIArchBox</text><text x="21.042" y="1.67" class="f">june_long]$</text><text x="33.066" y="1.67" class="f">competest</text><text x="43.086" y="1.67" class="f">python</text><text x="50.1" y="1.67" class="f">EOEO.p</text></svg><svg x="1680"><use xlink:href="#a"/><use xlink:href="#b" x="57.996"/><text y="1.67" class="f">[shailesh@MSIArchBox</text><text x="21.042" y="1.67" class="f">june_long]$</text><text x="33.066" y="1.67" class="f">competest</text><text x="43.086" y="1.67" class="f">python</text><text x="50.1" y="1.67" class="f">EOEO.py</text></svg><svg x="1760"><use xlink:href="#a"/><use xlink:href="#b" x="58.996"/><text y="1.67" class="f">[shailesh@MSIArchBox</text><text x="21.042" y="1.67" class="f">june_long]$</text><text x="33.066" y="1.67" class="f">competest</text><text x="43.086" y="1.67" class="f">python</text><text x="50.1" y="1.67" class="f">EOEO.py</text><text x="58.116" y="1.67" class="f">-</text></svg><svg x="1840"><use xlink:href="#a"/><use xlink:href="#b" x="59.996"/><use xlink:href="#3"/></svg><svg x="1920"><use xlink:href="#a"/><use xlink:href="#b" x="60.996"/><use xlink:href="#3"/></svg><svg x="2000"><use xlink:href="#a"/><use xlink:href="#b" x="61.996"/><text y="1.67" class="f">[shailesh@MSIArchBox</text><text x="21.042" y="1.67" class="f">june_long]$</text><text x="33.066" y="1.67" class="f">competest</text><text x="43.086" y="1.67" class="f">python</text><text x="50.1" y="1.67" class="f">EOEO.py</text><text x="58.116" y="1.67" class="f">-t</text><text x="61.122" y="1.67" class="f">E</text></svg><svg x="2080"><use xlink:href="#a"/><use xlink:href="#b" x="62.996"/><text y="1.67" class="f">[shailesh@MSIArchBox</text><text x="21.042" y="1.67" class="f">june_long]$</text><text x="33.066" y="1.67" class="f">competest</text><text x="43.086" y="1.67" class="f">python</text><text x="50.1" y="1.67" class="f">EOEO.py</text><text x="58.116" y="1.67" class="f">-t</text><text x="61.122" y="1.67" class="f">EO</text></svg><svg x="2160"><use xlink:href="#a"/><use xlink:href="#b" x="64.996"/><text y="1.67" class="f">[shailesh@MSIArchBox</text><text x="21.042" y="1.67" class="f">june_long]$</text><text x="33.066" y="1.67" class="f">competest</text><text x="43.086" y="1.67" class="f">python</text><text x="50.1" y="1.67" class="f">EOEO.py</text><text x="58.116" y="1.67" class="f">-t</text><text x="61.122" y="1.67" class="f">EOEO</text></svg><svg x="2240"><use xlink:href="#a"/><use xlink:href="#b" x="65.996"/><text y="1.67" class="f">[shailesh@MSIArchBox</text><text x="21.042" y="1.67" class="f">june_long]$</text><text x="33.066" y="1.67" class="f">competest</text><text x="43.086" y="1.67" class="f">python</text><text x="50.1" y="1.67" class="f">EOEO.py</text><text x="58.116" y="1.67" class="f">-t</text><text x="61.122" y="1.67" class="f">EOEO.</text></svg><svg x="2320"><use xlink:href="#a"/><use xlink:href="#b" x="66.996"/><text y="1.67" class="f">[shailesh@MSIArchBox</text><text x="21.042" y="1.67" class="f">june_long]$</text><text x="33.066" y="1.67" class="f">competest</text><text x="43.086" y="1.67" class="f">python</text><text x="50.1" y="1.67" class="f">EOEO.py</text><text x="58.116" y="1.67" class="f">-t</text><text x="61.122" y="1.67" class="f">EOEO.j</text></svg><svg x="2400"><use xlink:href="#a"/><use xlink:href="#b" x="70.996"/><use xlink:href="#4"/></svg><svg x="2480"><use xlink:href="#a"/><use xlink:href="#b" x="-.004" y="2.146"/><use xlink:href="#4"/></svg><svg x="2560"><use xlink:href="#a"/><use xlink:href="#b" x="-.004" y="4.317"/><use xlink:href="#4"/><use xlink:href="#5" y="2.171"/></svg><svg x="2640"><use xlink:href="#a"/><use xlink:href="#b" x="-.004" y="6.488"/><use xlink:href="#4"/><use xlink:href="#5" y="2.171"/><use xlink:href="#6" y="4.342"/></svg><svg x="2720"><use xlink:href="#a"/><use xlink:href="#b" x="-.004" y="8.659"/><use xlink:href="#4"/><use xlink:href="#5" y="2.171"/><use xlink:href="#6" y="4.342"/><use xlink:href="#7" y="6.513"/></svg><svg x="2800"><use xlink:href="#a"/><use xlink:href="#b" x="-.004" y="10.83"/><use xlink:href="#4"/><use xlink:href="#5" y="2.171"/><use xlink:href="#6" y="4.342"/><use xlink:href="#7" y="6.513"/><use xlink:href="#8" y="8.684"/></svg><svg x="2880"><use xlink:href="#a"/><use xlink:href="#b" x="-.004" y="15.172"/><use xlink:href="#4"/><use xlink:href="#5" y="2.171"/><use xlink:href="#6" y="4.342"/><use xlink:href="#7" y="6.513"/><use xlink:href="#8" y="8.684"/><use xlink:href="#9" y="10.855"/><use xlink:href="#10" y="13.026"/></svg><svg x="2960"><use xlink:href="#a"/><use xlink:href="#b" x="-.004" y="15.172"/><use xlink:href="#4"/><use xlink:href="#5" y="2.171"/><use xlink:href="#6" y="4.342"/><use xlink:href="#7" y="6.513"/><use xlink:href="#8" y="8.684"/><use xlink:href="#9" y="10.855"/><use xlink:href="#10" y="13.026"/></svg><svg x="3040"><use xlink:href="#a"/><use xlink:href="#b" x="32.996" y="15.172"/><use xlink:href="#4"/><use xlink:href="#5" y="2.171"/><use xlink:href="#6" y="4.342"/><use xlink:href="#7" y="6.513"/><use xlink:href="#8" y="8.684"/><use xlink:href="#9" y="10.855"/><use xlink:href="#10" y="13.026"/><use xlink:href="#1" y="15.197"/></svg><svg x="3120"><use xlink:href="#a"/><use xlink:href="#b" x="-.004" y="17.343"/><use xlink:href="#4"/><use xlink:href="#5" y="2.171"/><use xlink:href="#6" y="4.342"/><use xlink:href="#7" y="6.513"/><use xlink:href="#8" y="8.684"/><use xlink:href="#9" y="10.855"/><use xlink:href="#10" y="13.026"/><text y="16.867" class="f">[shailesh@MSIArchBox</text><text x="21.042" y="16.867" class="f">june_long]$</text><text x="33.066" y="16.867" class="f">exit</text></svg></svg></g></g></svg></svg>